<svg width="38" height="40" viewBox="0 0 38 40" fill="none" xmlns="http://www.w3.org/2000/svg">
<path d="M16.7875 1C18.0938 0 19.9094 0 21.2156 1L36.7219 12.8531C38.6969 14.3625 37.6375 17.5125 35.1562 17.525H2.84375C0.365625 17.5125 -0.696875 14.3625 1.28125 12.8531L16.7875 1ZM19 12.0563C19.6216 12.0563 20.2177 11.8093 20.6573 11.3698C21.0968 10.9302 21.3438 10.3341 21.3438 9.7125C21.3438 9.0909 21.0968 8.49476 20.6573 8.05522C20.2177 7.61568 19.6216 7.36875 19 7.36875C18.3784 7.36875 17.7823 7.61568 17.3427 8.05522C16.9032 8.49476 16.6562 9.0909 16.6562 9.7125C16.6562 10.3341 16.9032 10.9302 17.3427 11.3698C17.7823 11.8093 18.3784 12.0563 19 12.0563ZM4.9375 20.65V30.025H9.625V20.65H4.9375ZM12.75 20.65V30.025H17.4375V20.65H12.75ZM20.5625 20.65V30.025H25.25V20.65H20.5625ZM28.375 20.65V30.025H33.0625V20.65H28.375ZM0.25 37.0563C0.25 34.9 2 33.15 4.15625 33.15H33.8438C36 33.15 37.75 34.9 37.75 37.0563V37.8375C37.75 38.2519 37.5854 38.6493 37.2924 38.9424C36.9993 39.2354 36.6019 39.4 36.1875 39.4H1.8125C1.3981 39.4 1.00067 39.2354 0.707646 38.9424C0.41462 38.6493 0.25 38.2519 0.25 37.8375V37.0563Z" fill="#9FEBBD"/>
</svg>
