<svg width="46" height="46" viewBox="0 0 46 46" fill="none" xmlns="http://www.w3.org/2000/svg">
<g clip-path="url(#clip0_1216_974)">
<path d="M41.75 19.25V32.375C41.75 33.8668 41.1574 35.2976 40.1025 36.3525C39.0476 37.4074 37.6168 38 36.125 38H9.875C8.38316 38 6.95242 37.4074 5.89752 36.3525C4.84263 35.2976 4.25 33.8668 4.25 32.375V19.25H41.75ZM34.25 26.75H28.625C28.1277 26.75 27.6508 26.9475 27.2992 27.2992C26.9475 27.6508 26.75 28.1277 26.75 28.625C26.75 29.1223 26.9475 29.5992 27.2992 29.9508C27.6508 30.3025 28.1277 30.5 28.625 30.5H34.25C34.7473 30.5 35.2242 30.3025 35.5758 29.9508C35.9275 29.5992 36.125 29.1223 36.125 28.625C36.125 28.1277 35.9275 27.6508 35.5758 27.2992C35.2242 26.9475 34.7473 26.75 34.25 26.75ZM36.125 8C37.6168 8 39.0476 8.59263 40.1025 9.64752C41.1574 10.7024 41.75 12.1332 41.75 13.625V15.5H4.25V13.625C4.25 12.1332 4.84263 10.7024 5.89752 9.64752C6.95242 8.59263 8.38316 8 9.875 8H36.125Z" fill="#549DE1"/>
</g>
<defs>
<clipPath id="clip0_1216_974">
<rect width="45" height="45" fill="white" transform="translate(0.5 0.5)"/>
</clipPath>
</defs>
</svg>
