<svg width="42" height="42" viewBox="0 0 42 42" fill="none" xmlns="http://www.w3.org/2000/svg">
<path d="M25.666 17.9948C25.0202 20.5782 20.9993 19.2657 19.7493 18.9115L20.8952 14.3698C22.1868 14.7448 26.3327 15.2865 25.666 17.9948ZM19.1868 21.2448L17.9368 26.2657C19.4785 26.6615 24.2493 28.1823 24.9577 25.349C25.7077 22.3907 20.7285 21.6198 19.1868 21.2448ZM41.2077 26.0365C38.416 37.2032 27.1244 43.9948 15.9577 41.2032C4.79102 38.4115 -1.9944 27.1198 0.791018 15.9532C1.45277 13.2992 2.63088 10.8016 4.25804 8.60296C5.8852 6.40435 7.92955 4.54782 10.2743 3.13942C12.6191 1.73101 15.2183 0.79831 17.9236 0.394593C20.6289 -0.00912434 23.3872 0.124048 26.041 0.786504C37.1868 3.57817 43.9785 14.8698 41.2077 26.0365ZM25.6035 12.7657L26.541 9.01567L24.2494 8.49484L23.3327 12.099C22.7285 11.9532 22.1243 11.8073 21.4993 11.6823L22.416 7.99484L20.1452 7.45317L19.2077 11.1823C18.7077 11.0573 18.2077 10.9532 17.7493 10.8282L14.6035 10.0365L13.9785 12.474C13.9785 12.474 15.6869 12.8698 15.6452 12.8907C16.5827 13.1198 16.7493 13.7032 16.7077 14.224L14.1452 24.4948C14.041 24.7865 13.7077 25.1615 13.1035 25.0573C13.1244 25.0782 11.4369 24.6407 11.4369 24.6407L10.3119 27.2448L13.2702 27.9948C13.8327 28.1407 14.3744 28.2865 14.916 28.4115L13.9577 32.2032L16.2494 32.7865L17.1868 29.0157C17.8118 29.1823 18.416 29.3282 18.9993 29.4948L18.0619 33.224L20.3535 33.8073L21.3118 30.0157C25.166 30.7448 28.1243 30.4532 29.3327 26.9323C30.3743 24.1198 29.3327 22.4532 27.2493 21.3907C28.7493 20.9948 29.8743 20.0573 30.1868 18.0157C30.6035 15.2448 28.4785 13.7657 25.6035 12.7657Z" fill="#D3A52E"/>
</svg>
