<svg width="49" height="50" viewBox="0 0 49 50" fill="none" xmlns="http://www.w3.org/2000/svg">
<path fill-rule="evenodd" clip-rule="evenodd" d="M47.075 21.7875L45.78 26.6175C44.2675 32.255 43.5125 35.075 41.8 36.9025C40.4487 38.3454 38.7001 39.3554 36.775 39.805C36.5325 39.8625 36.2875 39.905 36.0375 39.935C33.75 40.2175 30.9575 39.47 25.8775 38.11C20.24 36.5975 17.42 35.8425 15.5925 34.13C14.1491 32.778 13.1391 31.0285 12.69 29.1025C12.12 26.6625 12.875 23.845 14.3875 18.2075L15.68 13.3775L16.29 11.115C17.4275 6.94998 18.1925 4.65748 19.66 3.08998C21.0116 1.64798 22.7602 0.638835 24.685 0.189984C27.125 -0.380016 29.945 0.374984 35.585 1.88748C41.22 3.39748 44.04 4.15248 45.8675 5.86248C47.3113 7.21512 48.3214 8.96562 48.77 10.8925C49.34 13.3325 48.585 16.15 47.075 21.7875ZM22.63 19.5125C22.6938 19.2746 22.8038 19.0516 22.9539 18.8563C23.1039 18.6609 23.2909 18.4971 23.5042 18.374C23.7176 18.251 23.9531 18.1712 24.1973 18.1392C24.4415 18.1072 24.6896 18.1236 24.9275 18.1875L37.0025 21.425C37.2466 21.4829 37.4767 21.5892 37.679 21.7376C37.8813 21.886 38.0517 22.0735 38.1802 22.289C38.3088 22.5045 38.3927 22.7436 38.4271 22.9921C38.4616 23.2406 38.4458 23.4935 38.3807 23.7359C38.3156 23.9782 38.2025 24.205 38.0482 24.4028C37.8938 24.6006 37.7014 24.7654 37.4822 24.8875C37.263 25.0096 37.0215 25.0864 36.772 25.1135C36.5226 25.1405 36.2703 25.1172 36.03 25.045L23.955 21.81C23.4751 21.6811 23.066 21.367 22.8176 20.9367C22.5691 20.5063 22.5017 19.9925 22.63 19.5125ZM20.69 26.7575C20.8189 26.2776 21.133 25.8685 21.5633 25.6201C21.9936 25.3716 22.505 25.3042 22.985 25.4325L30.23 27.375C30.4753 27.4316 30.7067 27.537 30.9103 27.685C31.114 27.833 31.2858 28.0204 31.4155 28.2362C31.5451 28.452 31.63 28.6917 31.6651 28.941C31.7001 29.1903 31.6846 29.4441 31.6194 29.6873C31.5543 29.9304 31.4408 30.158 31.2858 30.3564C31.1308 30.5547 30.9375 30.7199 30.7173 30.8419C30.4971 30.9639 30.2546 31.0404 30.0042 31.0667C29.7538 31.093 29.5007 31.0686 29.26 30.995L22.015 29.055C21.7771 28.9912 21.5541 28.8811 21.3588 28.7311C21.1634 28.5811 20.9996 28.3941 20.8765 28.1807C20.7535 27.9674 20.6737 27.7319 20.6417 27.4877C20.6097 27.2435 20.6261 26.9953 20.69 26.7575Z" fill="white"/>
<path opacity="0.5" d="M36.0377 39.9348C35.5151 41.5356 34.5967 42.9786 33.3677 44.1298C31.5402 45.8423 28.7202 46.5973 23.0827 48.1073C17.4452 49.6173 14.6252 50.3748 12.1877 49.8048C10.2617 49.3557 8.51213 48.3456 7.16017 46.9023C5.44767 45.0748 4.69017 42.2548 3.18017 36.6173L1.88767 31.7873C0.375168 26.1498 -0.379832 23.3298 0.187668 20.8923C0.637448 18.966 1.64841 17.2164 3.09267 15.8648C4.92017 14.1523 7.74017 13.3973 13.3777 11.8848C14.4427 11.5998 15.4102 11.3398 16.2902 11.1123L15.6802 13.3773L14.3877 18.2073C12.8752 23.8448 12.1202 26.6623 12.6877 29.1023C13.1374 31.0286 14.1484 32.7782 15.5927 34.1298C17.4202 35.8423 20.2402 36.5973 25.8777 38.1098C30.9577 39.4698 33.7502 40.2173 36.0377 39.9348Z" fill="white"/>
</svg>
