<svg width="51" height="51" viewBox="0 0 51 51" fill="none" xmlns="http://www.w3.org/2000/svg">
<path fill-rule="evenodd" clip-rule="evenodd" d="M6.75 22.2022C6.75 15.5397 6.75 12.2084 7.5375 11.0876C8.32292 9.96883 11.4542 8.89591 17.7188 6.75216L18.9125 6.34383C22.1771 5.22508 23.8083 4.66675 25.5 4.66675C27.1896 4.66675 28.8229 5.22508 32.0875 6.34383L33.2812 6.75216C39.5458 8.89591 42.6771 9.96883 43.4625 11.0876C44.25 12.2084 44.25 15.5417 44.25 22.2022V25.4813C44.25 37.2272 35.4187 42.9292 29.8771 45.348C28.375 46.0042 27.625 46.3334 25.5 46.3334C23.375 46.3334 22.625 46.0042 21.1229 45.348C15.5813 42.9272 6.75 37.2292 6.75 25.4813V22.2022ZM29.6667 19.2501C29.6667 20.3551 29.2277 21.415 28.4463 22.1964C27.6649 22.9778 26.6051 23.4167 25.5 23.4167C24.3949 23.4167 23.3351 22.9778 22.5537 22.1964C21.7723 21.415 21.3333 20.3551 21.3333 19.2501C21.3333 18.145 21.7723 17.0852 22.5537 16.3038C23.3351 15.5224 24.3949 15.0834 25.5 15.0834C26.6051 15.0834 27.6649 15.5224 28.4463 16.3038C29.2277 17.0852 29.6667 18.145 29.6667 19.2501ZM25.5 35.9167C33.8333 35.9167 33.8333 34.0522 33.8333 31.7501C33.8333 29.448 30.1042 27.5834 25.5 27.5834C20.8958 27.5834 17.1667 29.448 17.1667 31.7501C17.1667 34.0522 17.1667 35.9167 25.5 35.9167Z" fill="#D3692E"/>
</svg>
