<svg width="50" height="50" viewBox="0 0 50 50" fill="none" xmlns="http://www.w3.org/2000/svg">
<path d="M22.4922 39.7185C22.4922 39.7185 20.1719 39.7185 20.1719 37.3982C20.1719 35.0779 22.4922 28.1169 31.7734 28.1169C41.0547 28.1169 43.375 35.0779 43.375 37.3982C43.375 39.7185 41.0547 39.7185 41.0547 39.7185H22.4922ZM31.7734 25.7966C33.6196 25.7966 35.3901 25.0632 36.6956 23.7578C38.001 22.4524 38.7344 20.6818 38.7344 18.8357C38.7344 16.9895 38.001 15.219 36.6956 13.9136C35.3901 12.6081 33.6196 11.8748 31.7734 11.8748C29.9273 11.8748 28.1567 12.6081 26.8513 13.9136C25.5459 15.219 24.8125 16.9895 24.8125 18.8357C24.8125 20.6818 25.5459 22.4524 26.8513 23.7578C28.1567 25.0632 29.9273 25.7966 31.7734 25.7966ZM18.3527 39.7185C18.0088 38.9941 17.8372 38.2 17.8516 37.3982C17.8516 34.2542 19.4294 31.0173 22.3437 28.7666C20.8891 28.3184 19.3736 28.0992 17.8516 28.1169C8.57031 28.1169 6.25 35.0779 6.25 37.3982C6.25 39.7185 8.57031 39.7185 8.57031 39.7185H18.3527ZM16.6914 25.7966C18.2299 25.7966 19.7053 25.1855 20.7932 24.0976C21.881 23.0098 22.4922 21.5343 22.4922 19.9958C22.4922 18.4574 21.881 16.9819 20.7932 15.8941C19.7053 14.8062 18.2299 14.1951 16.6914 14.1951C15.1529 14.1951 13.6775 14.8062 12.5896 15.8941C11.5018 16.9819 10.8906 18.4574 10.8906 19.9958C10.8906 21.5343 11.5018 23.0098 12.5896 24.0976C13.6775 25.1855 15.1529 25.7966 16.6914 25.7966Z" fill="#8F8DFA"/>
</svg>
