<svg width="50" height="50" viewBox="0 0 50 50" fill="none" xmlns="http://www.w3.org/2000/svg">
<path d="M6.25 13.3042C6.25 12.2959 6.96875 11.4772 7.85625 11.4772H13.4083C14.5104 11.4438 15.4833 10.6459 15.8583 9.46675L15.9208 9.25841L16.1604 8.44383C16.3062 7.94383 16.4333 7.50633 16.6125 7.11675C17.3167 5.57716 18.6208 4.50841 20.1271 4.2355C20.5104 4.16675 20.9146 4.16675 21.3771 4.16675H28.6229C29.0875 4.16675 29.4917 4.16675 29.8729 4.2355C31.3792 4.50841 32.6854 5.57716 33.3875 7.11675C33.5667 7.50633 33.6937 7.94175 33.8417 8.44383L34.0792 9.25841L34.1417 9.46675C34.5167 10.6459 35.6833 11.4459 36.7875 11.4772H42.1417C43.0312 11.4772 43.75 12.2959 43.75 13.3042C43.75 14.3126 43.0312 15.1313 42.1437 15.1313H7.85417C6.96875 15.1313 6.25 14.3126 6.25 13.3042Z" fill="#F06868"/>
<path fill-rule="evenodd" clip-rule="evenodd" d="M24.1581 45.8335H25.8415C31.6394 45.8335 34.5373 45.8335 36.4248 43.9877C38.3081 42.1419 38.4998 39.1148 38.8852 33.0606L39.4415 24.3356C39.6498 21.0502 39.754 19.4064 38.8102 18.3669C37.8644 17.3252 36.2686 17.3252 33.0748 17.3252H16.9248C13.7311 17.3252 12.1331 17.3252 11.1894 18.3669C10.2436 19.4085 10.3477 21.0502 10.5581 24.3356L11.1144 33.0606C11.4998 39.1148 11.6915 42.1439 13.5769 43.9877C15.4623 45.8335 18.3602 45.8335 24.1581 45.8335ZM21.3457 25.3939C21.2623 24.4898 20.4956 23.8314 19.6373 23.921C18.7769 24.0106 18.1519 24.8169 18.2373 25.721L19.279 36.6856C19.3623 37.5898 20.129 38.2481 20.9873 38.1585C21.8477 38.0689 22.4727 37.2627 22.3873 36.3585L21.3457 25.3939ZM30.3644 23.921C31.2227 24.0106 31.8498 24.8169 31.7623 25.721L30.7207 36.6856C30.6373 37.5898 29.8686 38.2481 29.0123 38.1585C28.1519 38.0689 27.5269 37.2627 27.6123 36.3585L28.654 25.3939C28.7373 24.4898 29.5082 23.8314 30.3644 23.921Z" fill="#F06868"/>
</svg>
