<svg width="24" height="24" viewBox="0 0 24 24" fill="none" xmlns="http://www.w3.org/2000/svg">
<g id="mingcute:safe-alert-fill" clip-path="url(#clip0_1298_219)">
<g id="Group">
<path id="Vector" d="M12.8776 1.72696L12.8775 1.72693C12.3117 1.51485 11.6883 1.51485 11.1225 1.72693L11.1224 1.72696L4.1225 4.35193C4.12248 4.35194 4.12246 4.35195 4.12244 4.35196C3.64563 4.5307 3.23478 4.85079 2.94484 5.26939C2.65494 5.68793 2.49975 6.185 2.5 6.69412C2.5 6.69422 2.5 6.69433 2.5 6.69443L2.5 12.0551C2.49996 13.8194 2.99122 15.5488 3.91874 17.0496C4.84625 18.5504 6.17337 19.7633 7.75139 20.5523L11.1053 22.2293C11.1054 22.2293 11.1054 22.2293 11.1054 22.2293C11.3832 22.3682 11.6894 22.4406 12 22.4406C12.3105 22.4406 12.6168 22.3683 12.8945 22.2294C12.8946 22.2294 12.8946 22.2293 12.8947 22.2293L16.2485 20.5534L16.2486 20.5533C17.8266 19.7643 19.1537 18.5514 20.0813 17.0506C21.0088 15.5498 21.5 13.8204 21.5 12.0561V6.69318C21.5 6.69316 21.5 6.69314 21.5 6.69312C21.5001 6.18412 21.3447 5.68723 21.0548 5.26888C20.7649 4.85052 20.3542 4.53063 19.8776 4.35196C19.8775 4.35195 19.8775 4.35194 19.8775 4.35193L12.8776 1.72696ZM11.6464 14.6466C11.7402 14.5528 11.8674 14.5001 12 14.5001C12.1326 14.5001 12.2598 14.5528 12.3536 14.6466C12.4473 14.7403 12.5 14.8675 12.5 15.0001C12.5 15.1327 12.4473 15.2599 12.3536 15.3537C12.2598 15.4474 12.1326 15.5001 12 15.5001C11.8674 15.5001 11.7402 15.4474 11.6464 15.3537C11.5527 15.2599 11.5 15.1327 11.5 15.0001C11.5 14.8675 11.5527 14.7403 11.6464 14.6466ZM11.6679 7.62648C11.7594 7.54511 11.8776 7.50015 12 7.50012H12.0001C12.1327 7.50014 12.2598 7.55281 12.3536 7.64657C12.4473 7.74034 12.5 7.86751 12.5 8.00012V11.9852L12.4949 12.0701C12.4774 12.192 12.4155 12.3032 12.3209 12.3824C12.2232 12.4642 12.0979 12.5056 11.9707 12.4982C11.8435 12.4907 11.7239 12.4349 11.6364 12.3422C11.5489 12.2496 11.5001 12.127 11.5 11.9996V8.01506L11.5051 7.9298C11.5217 7.81274 11.5793 7.70521 11.6679 7.62648Z" stroke="#F14444"/>
</g>
</g>
<defs>
<clipPath id="clip0_1298_219">
<rect width="24" height="24" fill="white"/>
</clipPath>
</defs>
</svg>
