<svg width="30" height="30" viewBox="0 0 30 30" fill="none" xmlns="http://www.w3.org/2000/svg">
<g id="tabler:clock-filled" clip-path="url(#clip0_528_2743)">
<g id="Group">
<path id="Vector" d="M21.25 4.17487C23.1353 5.26343 24.7037 6.82552 25.7998 8.70649C26.8959 10.5875 27.4817 12.7221 27.4993 14.899C27.5169 17.076 26.9656 19.2198 25.9 21.1182C24.8345 23.0167 23.2916 24.6039 21.4241 25.7228C19.5566 26.8416 17.4292 27.4534 15.2526 27.4974C13.076 27.5415 10.9257 27.0163 9.01444 25.9739C7.1032 24.9315 5.49734 23.408 4.35583 21.5543C3.21433 19.7005 2.57676 17.5808 2.50625 15.4049L2.5 14.9999L2.50625 14.5949C2.57625 12.4361 3.20443 10.3323 4.32955 8.48861C5.45466 6.6449 7.03832 5.12418 8.92612 4.07472C10.8139 3.02526 12.9414 2.48286 15.1013 2.50041C17.2611 2.51796 19.3795 3.09486 21.25 4.17487ZM15 7.49987C14.6938 7.49991 14.3983 7.61231 14.1695 7.81576C13.9407 8.01921 13.7946 8.29955 13.7587 8.60362L13.75 8.74987V14.9999L13.7612 15.1636C13.7898 15.3805 13.8747 15.5861 14.0075 15.7599L14.1163 15.8849L17.8663 19.6349L17.9838 19.7374C18.203 19.9074 18.4725 19.9998 18.75 19.9998C19.0275 19.9998 19.297 19.9074 19.5163 19.7374L19.6337 19.6336L19.7375 19.5161C19.9076 19.2969 19.9999 19.0273 19.9999 18.7499C19.9999 18.4724 19.9076 18.2028 19.7375 17.9836L19.6337 17.8661L16.25 14.4811V8.74987L16.2413 8.60362C16.2054 8.29955 16.0593 8.01921 15.8305 7.81576C15.6017 7.61231 15.3062 7.49991 15 7.49987Z" fill="#401919"/>
</g>
</g>
<defs>
<clipPath id="clip0_528_2743">
<rect width="30" height="30" fill="white"/>
</clipPath>
</defs>
</svg>
