<svg width="30" height="30" viewBox="0 0 30 30" fill="none" xmlns="http://www.w3.org/2000/svg">
<g id="Cross">
<g id="Group 1">
<path id="Polygon 1" d="M13.9801 2.21233C14.7839 1.74823 15.7743 1.74823 16.5781 2.21233C23.0088 5.92514 26.9703 12.7867 26.9703 20.2123V20.7808C26.9703 21.3846 26.7695 21.9713 26.3994 22.4484L25.9467 23.0322C20.5421 30.001 10.0159 30.0009 4.61138 23.032L4.15876 22.4484C3.78872 21.9713 3.58789 21.3846 3.58789 20.7808V20.2123C3.58789 12.7867 7.54937 5.92514 13.9801 2.21233Z" fill="white"/>
<path id="+" d="M18.7513 21.4284L9.5887 12.2658L12.1388 9.71566L21.3013 18.8783L18.7513 21.4284ZM12.1388 21.4347L9.5887 18.8846L18.7513 9.72198L21.3013 12.2721L12.1388 21.4347Z" fill="#F14444"/>
</g>
</g>
</svg>
