<svg width="25" height="24" viewBox="0 0 25 24" fill="none" xmlns="http://www.w3.org/2000/svg">
<g id="grommet-icons:power-reset">
<path id="Vector" d="M20.5 8C19.097 5.04 16.037 3 12.5 3C11.3181 3 10.1478 3.23279 9.05585 3.68508C7.96392 4.13738 6.97177 4.80031 6.13604 5.63604C5.30031 6.47177 4.63738 7.46392 4.18508 8.55585C3.73279 9.64778 3.5 10.8181 3.5 12C3.5 13.1819 3.73279 14.3522 4.18508 15.4442C4.63738 16.5361 5.30031 17.5282 6.13604 18.364C6.97177 19.1997 7.96392 19.8626 9.05585 20.3149C10.1478 20.7672 11.3181 21 12.5 21C14.8869 21 17.1761 20.0518 18.864 18.364C20.5518 16.6761 21.5 14.3869 21.5 12M21.5 3V9H15.5" stroke="#A0A0A0" stroke-width="2"/>
</g>
</svg>
