<svg width="24" height="25" viewBox="0 0 24 25" fill="none" xmlns="http://www.w3.org/2000/svg">
<path d="M15 21.5C14.45 21.5 13.979 21.304 13.587 20.912C13.195 20.52 12.9993 20.0493 13 19.5V15.5C13 14.95 13.196 14.479 13.588 14.087C13.98 13.695 14.4507 13.4993 15 13.5H19C19.55 13.5 20.021 13.696 20.413 14.088C20.805 14.48 21.0007 14.9507 21 15.5V19.5C21 20.05 20.804 20.521 20.412 20.913C20.02 21.305 19.5493 21.5007 19 21.5H15ZM15 11.5C14.45 11.5 13.979 11.304 13.587 10.912C13.195 10.52 12.9993 10.0493 13 9.5V5.5C13 4.95 13.196 4.479 13.588 4.087C13.98 3.695 14.4507 3.49934 15 3.5H19C19.55 3.5 20.021 3.696 20.413 4.088C20.805 4.48 21.0007 4.95067 21 5.5V9.5C21 10.05 20.804 10.521 20.412 10.913C20.02 11.305 19.5493 11.5007 19 11.5H15ZM5 11.5C4.45 11.5 3.979 11.304 3.587 10.912C3.195 10.52 2.99934 10.0493 3 9.5V5.5C3 4.95 3.196 4.479 3.588 4.087C3.98 3.695 4.45067 3.49934 5 3.5H9C9.55 3.5 10.021 3.696 10.413 4.088C10.805 4.48 11.0007 4.95067 11 5.5V9.5C11 10.05 10.804 10.521 10.412 10.913C10.02 11.305 9.54934 11.5007 9 11.5H5ZM5 21.5C4.45 21.5 3.979 21.304 3.587 20.912C3.195 20.52 2.99934 20.0493 3 19.5V15.5C3 14.95 3.196 14.479 3.588 14.087C3.98 13.695 4.45067 13.4993 5 13.5H9C9.55 13.5 10.021 13.696 10.413 14.088C10.805 14.48 11.0007 14.9507 11 15.5V19.5C11 20.05 10.804 20.521 10.412 20.913C10.02 21.305 9.54934 21.5007 9 21.5H5Z" fill="#A0A0A0"/>
</svg>
