<svg width="24" height="25" viewBox="0 0 24 25" fill="none" xmlns="http://www.w3.org/2000/svg">
<path d="M2.3999 7.1001C2.3999 6.30445 2.71597 5.54139 3.27858 4.97878C3.84119 4.41617 4.60425 4.1001 5.3999 4.1001H8.3783C8.9351 4.1001 9.4703 4.3209 9.8639 4.7157L11.3999 6.2517L8.9279 8.7237C8.87204 8.77974 8.80563 8.82418 8.73252 8.85445C8.65941 8.88473 8.58103 8.90024 8.5019 8.9001H2.3999V7.1001ZM2.3999 10.1001V17.9001C2.3999 18.6957 2.71597 19.4588 3.27858 20.0214C3.84119 20.584 4.60425 20.9001 5.3999 20.9001H11.5199C10.8293 19.5481 10.6258 17.9994 10.9439 16.515C11.2619 15.0305 12.0819 13.7011 13.2658 12.7508C14.4497 11.8004 15.925 11.2872 17.4431 11.2978C18.9612 11.3083 20.4293 11.8418 21.5999 12.8085V9.5001C21.5999 8.70445 21.2838 7.94139 20.7212 7.37878C20.1586 6.81617 19.3956 6.5001 18.5999 6.5001H12.8483L9.7763 9.5721C9.60903 9.73958 9.41037 9.87242 9.19169 9.96302C8.97301 10.0536 8.73861 10.1002 8.5019 10.1001H2.3999ZM22.7999 17.9001C22.7999 19.3323 22.231 20.7058 21.2183 21.7185C20.2056 22.7312 18.8321 23.3001 17.3999 23.3001C15.9677 23.3001 14.5942 22.7312 13.5815 21.7185C12.5688 20.7058 11.9999 19.3323 11.9999 17.9001C11.9999 16.4679 12.5688 15.0944 13.5815 14.0817C14.5942 13.069 15.9677 12.5001 17.3999 12.5001C18.8321 12.5001 20.2056 13.069 21.2183 14.0817C22.231 15.0944 22.7999 16.4679 22.7999 17.9001ZM17.9999 15.5001C17.9999 15.341 17.9367 15.1884 17.8242 15.0758C17.7116 14.9633 17.559 14.9001 17.3999 14.9001C17.2408 14.9001 17.0882 14.9633 16.9756 15.0758C16.8631 15.1884 16.7999 15.341 16.7999 15.5001V17.3001H14.9999C14.8408 17.3001 14.6882 17.3633 14.5756 17.4758C14.4631 17.5884 14.3999 17.741 14.3999 17.9001C14.3999 18.0592 14.4631 18.2118 14.5756 18.3244C14.6882 18.4369 14.8408 18.5001 14.9999 18.5001H16.7999V20.3001C16.7999 20.4592 16.8631 20.6118 16.9756 20.7244C17.0882 20.8369 17.2408 20.9001 17.3999 20.9001C17.559 20.9001 17.7116 20.8369 17.8242 20.7244C17.9367 20.6118 17.9999 20.4592 17.9999 20.3001V18.5001H19.7999C19.959 18.5001 20.1116 18.4369 20.2242 18.3244C20.3367 18.2118 20.3999 18.0592 20.3999 17.9001C20.3999 17.741 20.3367 17.5884 20.2242 17.4758C20.1116 17.3633 19.959 17.3001 19.7999 17.3001H17.9999V15.5001Z" fill="#A0A0A0"/>
</svg>
