<svg width="24" height="25" viewBox="0 0 24 25" fill="none" xmlns="http://www.w3.org/2000/svg">
<path fill-rule="evenodd" clip-rule="evenodd" d="M20.83 11.215L20.312 13.147C19.707 15.402 19.405 16.53 18.72 17.261C18.1795 17.8382 17.48 18.2422 16.71 18.422C16.613 18.445 16.515 18.462 16.415 18.474C15.5 18.587 14.383 18.288 12.351 17.744C10.096 17.139 8.96799 16.837 8.23699 16.152C7.65966 15.6112 7.25563 14.9114 7.07599 14.141C6.84799 13.165 7.14999 12.038 7.75499 9.78299L8.27199 7.85099L8.51599 6.94599C8.97099 5.27999 9.27699 4.36299 9.86399 3.73599C10.4046 3.15919 11.1041 2.75553 11.874 2.57599C12.85 2.34799 13.978 2.64999 16.234 3.25499C18.488 3.85899 19.616 4.16099 20.347 4.84499C20.9245 5.38605 21.3285 6.08625 21.508 6.85699C21.736 7.83299 21.434 8.95999 20.83 11.215ZM11.052 10.305C11.0775 10.2098 11.1215 10.1206 11.1815 10.0425C11.2415 9.96437 11.3164 9.89883 11.4017 9.84961C11.487 9.80039 11.5812 9.76847 11.6789 9.75566C11.7766 9.74286 11.8759 9.74943 11.971 9.77499L16.801 11.07C16.8986 11.0931 16.9907 11.1357 17.0716 11.195C17.1525 11.2544 17.2207 11.3294 17.2721 11.4156C17.3235 11.5018 17.3571 11.5974 17.3709 11.6968C17.3846 11.7963 17.3783 11.8974 17.3523 11.9943C17.3262 12.0913 17.281 12.182 17.2193 12.2611C17.1575 12.3402 17.0805 12.4062 16.9929 12.455C16.9052 12.5038 16.8086 12.5346 16.7088 12.5454C16.609 12.5562 16.5081 12.5469 16.412 12.518L11.582 11.224C11.39 11.1724 11.2264 11.0468 11.127 10.8747C11.0277 10.7025 11.0007 10.497 11.052 10.305ZM10.276 13.203C10.3276 13.011 10.4532 12.8474 10.6253 12.748C10.7974 12.6487 11.002 12.6217 11.194 12.673L14.092 13.45C14.1901 13.4726 14.2827 13.5148 14.3641 13.574C14.4456 13.6332 14.5143 13.7082 14.5662 13.7945C14.6181 13.8808 14.652 13.9767 14.666 14.0764C14.68 14.1761 14.6738 14.2776 14.6478 14.3749C14.6217 14.4722 14.5763 14.5632 14.5143 14.6425C14.4523 14.7219 14.375 14.7879 14.2869 14.8368C14.1988 14.8856 14.1018 14.9162 14.0017 14.9267C13.9015 14.9372 13.8003 14.9274 13.704 14.898L10.806 14.122C10.7108 14.0965 10.6216 14.0524 10.5435 13.9924C10.4654 13.9324 10.3998 13.8576 10.3506 13.7723C10.3014 13.6869 10.2695 13.5927 10.2567 13.4951C10.2439 13.3974 10.2504 13.2981 10.276 13.203Z" fill="#A0A0A0"/>
<path opacity="0.5" d="M16.415 18.4741C16.2059 19.1144 15.8386 19.6916 15.347 20.1521C14.616 20.8371 13.488 21.1391 11.233 21.7431C8.97797 22.3471 7.84997 22.6501 6.87497 22.4221C6.10458 22.2424 5.40475 21.8384 4.86397 21.2611C4.17897 20.5301 3.87597 19.4021 3.27197 17.1471L2.75497 15.2151C2.14997 12.9601 1.84797 11.8321 2.07497 10.8571C2.25488 10.0866 2.65927 9.38672 3.23697 8.84607C3.96797 8.16107 5.09597 7.85907 7.35097 7.25407C7.77697 7.14007 8.16397 7.03607 8.51597 6.94507L8.27197 7.85107L7.75497 9.78307C7.14997 12.0381 6.84797 13.1651 7.07497 14.1411C7.25488 14.9116 7.65927 15.6114 8.23697 16.1521C8.96797 16.8371 10.096 17.1391 12.351 17.7441C14.383 18.2881 15.5 18.5871 16.415 18.4741Z" fill="#A0A0A0"/>
</svg>
