<svg width="24" height="25" viewBox="0 0 24 25" fill="none" xmlns="http://www.w3.org/2000/svg">
<path d="M21.4284 6.50024H2.57122C1.62445 6.50024 0.856934 7.26776 0.856934 8.21453V16.786C0.856934 17.7327 1.62445 18.5002 2.57122 18.5002H21.4284C22.3751 18.5002 23.1426 17.7327 23.1426 16.786V8.21453C23.1426 7.26776 22.3751 6.50024 21.4284 6.50024Z" stroke="white" stroke-width="1.71429" stroke-linecap="round" stroke-linejoin="round"/>
<path d="M5.99972 13.3574C6.47311 13.3574 6.85686 12.9736 6.85686 12.5002C6.85686 12.0268 6.47311 11.6431 5.99972 11.6431C5.52633 11.6431 5.14258 12.0268 5.14258 12.5002C5.14258 12.9736 5.52633 13.3574 5.99972 13.3574Z" stroke="white" stroke-width="1.71429" stroke-linecap="round" stroke-linejoin="round"/>
<path d="M11.1423 13.3574C11.6157 13.3574 11.9994 12.9736 11.9994 12.5002C11.9994 12.0268 11.6157 11.6431 11.1423 11.6431C10.6689 11.6431 10.2852 12.0268 10.2852 12.5002C10.2852 12.9736 10.6689 13.3574 11.1423 13.3574Z" stroke="white" stroke-width="1.71429" stroke-linecap="round" stroke-linejoin="round"/>
<path d="M16.2852 14.2144H18.8566" stroke="white" stroke-width="1.71429" stroke-linecap="round" stroke-linejoin="round"/>
</svg>
