<svg width="24" height="25" viewBox="0 0 24 25" fill="none" xmlns="http://www.w3.org/2000/svg">
<path fill-rule="evenodd" clip-rule="evenodd" d="M3 10.917C3 7.719 3 6.12 3.378 5.582C3.755 5.045 5.258 4.53 8.265 3.501L8.838 3.305C10.405 2.768 11.188 2.5 12 2.5C12.811 2.5 13.595 2.768 15.162 3.305L15.735 3.501C18.742 4.53 20.245 5.045 20.622 5.582C21 6.12 21 7.72 21 10.917V12.491C21 18.129 16.761 20.866 14.101 22.027C13.38 22.342 13.02 22.5 12 22.5C10.98 22.5 10.62 22.342 9.899 22.027C7.239 20.865 3 18.13 3 12.491V10.917ZM14 9.5C14 10.0304 13.7893 10.5391 13.4142 10.9142C13.0391 11.2893 12.5304 11.5 12 11.5C11.4696 11.5 10.9609 11.2893 10.5858 10.9142C10.2107 10.5391 10 10.0304 10 9.5C10 8.96957 10.2107 8.46086 10.5858 8.08579C10.9609 7.71071 11.4696 7.5 12 7.5C12.5304 7.5 13.0391 7.71071 13.4142 8.08579C13.7893 8.46086 14 8.96957 14 9.5ZM12 17.5C16 17.5 16 16.605 16 15.5C16 14.395 14.21 13.5 12 13.5C9.79 13.5 8 14.395 8 15.5C8 16.605 8 17.5 12 17.5Z" fill="#A0A0A0"/>
</svg>
