<svg width="24" height="25" viewBox="0 0 24 25" fill="none" xmlns="http://www.w3.org/2000/svg">
<path d="M3 6.886C3 6.402 3.345 6.009 3.771 6.009H6.436C6.965 5.993 7.432 5.61 7.612 5.044L7.642 4.944L7.757 4.553C7.827 4.313 7.888 4.103 7.974 3.916C8.312 3.177 8.938 2.664 9.661 2.533C9.845 2.5 10.039 2.5 10.261 2.5H13.739C13.962 2.5 14.156 2.5 14.339 2.533C15.062 2.664 15.689 3.177 16.026 3.916C16.112 4.103 16.173 4.312 16.244 4.553L16.358 4.944L16.388 5.044C16.568 5.61 17.128 5.994 17.658 6.009H20.228C20.655 6.009 21 6.402 21 6.886C21 7.37 20.655 7.763 20.229 7.763H3.77C3.345 7.763 3 7.37 3 6.886Z" fill="#A0A0A0"/>
<path fill-rule="evenodd" clip-rule="evenodd" d="M11.5962 22.4999H12.4042C15.1872 22.4999 16.5782 22.4999 17.4842 21.6139C18.3882 20.7279 18.4802 19.2749 18.6652 16.3689L18.9322 12.1809C19.0322 10.6039 19.0822 9.81492 18.6292 9.31592C18.1752 8.81592 17.4092 8.81592 15.8762 8.81592H8.12422C6.59122 8.81592 5.82422 8.81592 5.37122 9.31592C4.91722 9.81592 4.96722 10.6039 5.06822 12.1809L5.33522 16.3689C5.52022 19.2749 5.61222 20.7289 6.51722 21.6139C7.42222 22.4999 8.81322 22.4999 11.5962 22.4999ZM10.2462 12.6889C10.2062 12.2549 9.83822 11.9389 9.42622 11.9819C9.01322 12.0249 8.71322 12.4119 8.75422 12.8459L9.25422 18.1089C9.29422 18.5429 9.66222 18.8589 10.0742 18.8159C10.4872 18.7729 10.7872 18.3859 10.7462 17.9519L10.2462 12.6889ZM14.5752 11.9819C14.9872 12.0249 15.2882 12.4119 15.2462 12.8459L14.7462 18.1089C14.7062 18.5429 14.3372 18.8589 13.9262 18.8159C13.5132 18.7729 13.2132 18.3859 13.2542 17.9519L13.7542 12.6889C13.7942 12.2549 14.1642 11.9389 14.5752 11.9819Z" fill="#A0A0A0"/>
</svg>
