<svg width="40" height="40" viewBox="0 0 40 40" fill="none" xmlns="http://www.w3.org/2000/svg">
<g id="solar:lock-password-broken">
<g id="Group">
<path id="Vector" d="M15.0001 26.6667C15.0001 27.1087 14.8245 27.5326 14.5119 27.8452C14.1994 28.1577 13.7754 28.3333 13.3334 28.3333C12.8914 28.3333 12.4675 28.1577 12.1549 27.8452C11.8423 27.5326 11.6667 27.1087 11.6667 26.6667C11.6667 26.2246 11.8423 25.8007 12.1549 25.4882C12.4675 25.1756 12.8914 25 13.3334 25C13.7754 25 14.1994 25.1756 14.5119 25.4882C14.8245 25.8007 15.0001 26.2246 15.0001 26.6667ZM21.6667 26.6667C21.6667 27.1087 21.4912 27.5326 21.1786 27.8452C20.866 28.1577 20.4421 28.3333 20.0001 28.3333C19.5581 28.3333 19.1341 28.1577 18.8216 27.8452C18.509 27.5326 18.3334 27.1087 18.3334 26.6667C18.3334 26.2246 18.509 25.8007 18.8216 25.4882C19.1341 25.1756 19.5581 25 20.0001 25C20.4421 25 20.866 25.1756 21.1786 25.4882C21.4912 25.8007 21.6667 26.2246 21.6667 26.6667ZM28.3334 26.6667C28.3334 27.1087 28.1578 27.5326 27.8453 27.8452C27.5327 28.1577 27.1088 28.3333 26.6667 28.3333C26.2247 28.3333 25.8008 28.1577 25.4882 27.8452C25.1757 27.5326 25.0001 27.1087 25.0001 26.6667C25.0001 26.2246 25.1757 25.8007 25.4882 25.4882C25.8008 25.1756 26.2247 25 26.6667 25C27.1088 25 27.5327 25.1756 27.8453 25.4882C28.1578 25.8007 28.3334 26.2246 28.3334 26.6667Z" fill="#2ED370"/>
<path id="Vector_2" d="M10 16.6667V13.3334C10 12.7667 10.0467 12.2084 10.1384 11.6667M30 16.6667V13.3334C30.0002 11.3021 29.3817 9.31898 28.2269 7.64788C27.0722 5.97677 25.4359 4.69695 23.5359 3.97873C21.6358 3.26051 19.5621 3.13795 17.5907 3.62736C15.6192 4.11677 13.8436 5.19494 12.5 6.71839M18.3334 36.6667H13.3334C8.62004 36.6667 6.26171 36.6667 4.79837 35.2017C3.33337 33.7384 3.33337 31.3801 3.33337 26.6667C3.33337 21.9534 3.33337 19.5951 4.79837 18.1317C6.26171 16.6667 8.62004 16.6667 13.3334 16.6667H26.6667C31.38 16.6667 33.7384 16.6667 35.2017 18.1317C36.6667 19.5951 36.6667 21.9534 36.6667 26.6667C36.6667 31.3801 36.6667 33.7384 35.2017 35.2017C33.7384 36.6667 31.38 36.6667 26.6667 36.6667H25" stroke="#EDEDED" stroke-width="2.5" stroke-linecap="round"/>
</g>
</g>
</svg>
