<svg width="66" height="57" viewBox="0 0 66 57" fill="none" xmlns="http://www.w3.org/2000/svg">
<path d="M17.5382 36.7889L15.5496 35.6526L23.0067 22.7268L24.9953 23.8631L31.2451 12.997V0.000244141H29.8957L-0.00390625 51.8452L0.635279 52.9816L11.9275 46.4477L17.5382 36.7889Z" fill="#20934E"/>
<path d="M13.4212 49.0754L2.12891 55.6093L2.83911 56.7457H19.2449L23.7902 54.1179H43.0367L47.5821 56.7457H62.6384L63.3486 55.6093L52.0563 49.0754H13.4212Z" fill="#20934E"/>
<path d="M34.2305 0.000244141V12.997L40.1962 23.295L42.1848 22.1587L49.6419 35.0844L47.6534 36.2207L53.5481 46.4477L64.8403 52.9816L65.4795 51.8452L35.5799 0.000244141H34.2305Z" fill="#20934E"/>
</svg>
