<svg width="24" height="24" viewBox="0 0 24 24" fill="none" xmlns="http://www.w3.org/2000/svg">
<g id="solar:lock-password-broken">
<g id="Group">
<path id="Vector" d="M9 16C9 16.2652 8.89464 16.5196 8.70711 16.7071C8.51957 16.8946 8.26522 17 8 17C7.73478 17 7.48043 16.8946 7.29289 16.7071C7.10536 16.5196 7 16.2652 7 16C7 15.7348 7.10536 15.4804 7.29289 15.2929C7.48043 15.1054 7.73478 15 8 15C8.26522 15 8.51957 15.1054 8.70711 15.2929C8.89464 15.4804 9 15.7348 9 16ZM13 16C13 16.2652 12.8946 16.5196 12.7071 16.7071C12.5196 16.8946 12.2652 17 12 17C11.7348 17 11.4804 16.8946 11.2929 16.7071C11.1054 16.5196 11 16.2652 11 16C11 15.7348 11.1054 15.4804 11.2929 15.2929C11.4804 15.1054 11.7348 15 12 15C12.2652 15 12.5196 15.1054 12.7071 15.2929C12.8946 15.4804 13 15.7348 13 16ZM17 16C17 16.2652 16.8946 16.5196 16.7071 16.7071C16.5196 16.8946 16.2652 17 16 17C15.7348 17 15.4804 16.8946 15.2929 16.7071C15.1054 16.5196 15 16.2652 15 16C15 15.7348 15.1054 15.4804 15.2929 15.2929C15.4804 15.1054 15.7348 15 16 15C16.2652 15 16.5196 15.1054 16.7071 15.2929C16.8946 15.4804 17 15.7348 17 16Z" fill="#2ED370"/>
<path id="Vector_2" d="M5.99805 9.99989V7.99989C5.99805 7.65989 6.02605 7.32489 6.08105 6.99989M17.998 9.99989V7.99989C17.9981 6.78113 17.627 5.59124 16.9342 4.58858C16.2413 3.58592 15.2596 2.81802 14.1195 2.38709C12.9795 1.95616 11.7353 1.88262 10.5524 2.17627C9.36956 2.46991 8.30418 3.11682 7.49805 4.03089M10.998 21.9999H7.99805C5.17005 21.9999 3.75505 21.9999 2.87705 21.1209C1.99805 20.2429 1.99805 18.8279 1.99805 15.9999C1.99805 13.1719 1.99805 11.7569 2.87705 10.8789C3.75505 9.99989 5.17005 9.99989 7.99805 9.99989H15.998C18.826 9.99989 20.241 9.99989 21.119 10.8789C21.998 11.7569 21.998 13.1719 21.998 15.9999C21.998 18.8279 21.998 20.2429 21.119 21.1209C20.241 21.9999 18.826 21.9999 15.998 21.9999H14.998" stroke="#2ED370" stroke-width="1.5" stroke-linecap="round"/>
</g>
</g>
</svg>
