<svg width="28" height="28" viewBox="0 0 28 28" fill="none" xmlns="http://www.w3.org/2000/svg">
<path d="M14.0001 25.6665C15.2834 25.6665 16.3334 24.6165 16.3334 23.3332H11.6667C11.6667 23.952 11.9126 24.5455 12.3501 24.9831C12.7877 25.4207 13.3812 25.6665 14.0001 25.6665ZM21.0001 18.6665V12.8332C21.0001 9.2515 19.0867 6.25317 15.7501 5.45984V4.6665C15.7501 3.69817 14.9684 2.9165 14.0001 2.9165C13.0317 2.9165 12.2501 3.69817 12.2501 4.6665V5.45984C8.90173 6.25317 7.00006 9.23984 7.00006 12.8332V18.6665L5.49506 20.1715C4.76006 20.9065 5.27339 22.1665 6.31173 22.1665H21.6767C22.7151 22.1665 23.2401 20.9065 22.5051 20.1715L21.0001 18.6665Z" fill="#CCCCCC"/>
</svg>
