<svg width="40" height="40" viewBox="0 0 40 40" fill="none" xmlns="http://www.w3.org/2000/svg">
<path fill-rule="evenodd" clip-rule="evenodd" d="M12.2668 6.93341L15.0001 9.70008C15.1834 7.08342 17.3501 5.00008 20.0001 5.00008C22.7668 5.00008 25.0001 7.23342 25.0001 10.0001V13.3334H18.6668L22.0001 16.6667H30.0001V24.6667L33.3334 28.0001V16.6667C33.3334 15.7827 32.9822 14.9348 32.3571 14.3097C31.732 13.6846 30.8841 13.3334 30.0001 13.3334H28.3334V10.0001C28.3334 5.40008 24.6001 1.66675 20.0001 1.66675C18.3313 1.66684 16.7013 2.16925 15.322 3.10858C13.9427 4.04792 12.8781 5.38068 12.2668 6.93341Z" fill="#CCCCCC"/>
<path fill-rule="evenodd" clip-rule="evenodd" d="M36.8501 35.7667L34.7334 37.8834L32.4334 35.5834C31.8334 36.2501 30.9668 36.6667 30.0001 36.6667H10.0001C9.11604 36.6667 8.2682 36.3156 7.64307 35.6904C7.01795 35.0653 6.66676 34.2175 6.66676 33.3334V16.6667C6.66676 14.8167 8.1501 13.3334 10.0001 13.3334H10.1834L1.8501 5.00008L3.98343 2.88341L36.8501 35.7667ZM23.0834 26.2334L30.0001 33.1501V33.3334H10.0001V16.6667H13.5168L18.7668 21.9167C17.5001 22.4001 16.6668 23.5834 16.6668 25.0001C16.6668 25.8841 17.018 26.732 17.6431 27.3571C18.2682 27.9822 19.116 28.3334 20.0001 28.3334C21.4001 28.3334 22.6001 27.5001 23.0834 26.2334Z" fill="#2ED370"/>
</svg>
