<svg width="20" height="21" viewBox="0 0 20 21" fill="none" xmlns="http://www.w3.org/2000/svg">
<path d="M17.67 4.48857C17.4915 4.27567 17.2519 4.12268 16.9837 4.05025C16.7154 3.97783 16.4314 3.98946 16.17 4.08357C15.9303 4.17939 15.7242 4.34374 15.5775 4.55607L13.6575 6.41607L11.6625 3.68607C11.5757 3.52859 11.4577 3.39041 11.3158 3.27992C11.1739 3.16943 11.011 3.08894 10.8371 3.04335C10.6631 2.99775 10.4817 2.988 10.3038 3.01469C10.126 3.04137 9.95542 3.10393 9.8025 3.19857C9.60794 3.31811 9.44772 3.48608 9.3375 3.68607L7.3425 6.41607L5.4225 4.55607C5.30431 4.38602 5.14798 4.24598 4.96601 4.14714C4.78403 4.04831 4.58145 3.99341 4.37447 3.98685C4.16749 3.98029 3.96184 4.02225 3.77397 4.10937C3.5861 4.19648 3.42122 4.32634 3.2925 4.48857C3.10719 4.71828 3.0042 5.00346 3 5.29857V12.6486C3 13.2287 3.11426 13.8031 3.33626 14.3391C3.55826 14.875 3.88365 15.362 4.29386 15.7722C5.1223 16.6007 6.24591 17.0661 7.4175 17.0661H13.5825C14.7529 17.0621 15.8742 16.5954 16.7018 15.7678C17.5294 14.9403 17.996 13.8189 18 12.6486V5.27607C17.9765 4.98516 17.8609 4.70931 17.67 4.48857ZM13.4925 14.1711H7.4925C7.29359 14.1711 7.10282 14.0921 6.96217 13.9514C6.82152 13.8107 6.7425 13.62 6.7425 13.4211C6.7425 13.2222 6.82152 13.0314 6.96217 12.8907C7.10282 12.7501 7.29359 12.6711 7.4925 12.6711H13.4925C13.6914 12.6711 13.8822 12.7501 14.0228 12.8907C14.1635 13.0314 14.2425 13.2222 14.2425 13.4211C14.2425 13.62 14.1635 13.8107 14.0228 13.9514C13.8822 14.0921 13.6914 14.1711 13.4925 14.1711Z" fill="#F6B81A"/>
</svg>
