<svg width="24" height="24" viewBox="0 0 24 24" fill="none" xmlns="http://www.w3.org/2000/svg">
<path d="M3.68079 13L3.15279 13.532C3.29325 13.6712 3.48302 13.7494 3.68079 13.7494C3.87856 13.7494 4.06833 13.6712 4.20879 13.532L3.68079 13ZM5.88879 11.866C6.03015 11.7257 6.10999 11.535 6.11074 11.3358C6.11149 11.1367 6.03309 10.9454 5.89279 10.804C5.82332 10.734 5.74075 10.6784 5.64978 10.6403C5.55881 10.6022 5.46123 10.5824 5.36262 10.5821C5.16346 10.5813 4.97215 10.6597 4.83079 10.8L5.88779 11.865L5.88879 11.866ZM2.52879 10.8C2.38678 10.6639 2.19697 10.589 2.00026 10.5915C1.80356 10.594 1.6157 10.6736 1.47719 10.8133C1.33868 10.953 1.2606 11.1416 1.25977 11.3383C1.25895 11.535 1.33545 11.7242 1.47279 11.865L2.52879 10.8ZM18.6168 7.39201C18.6671 7.47858 18.7342 7.55421 18.8141 7.61444C18.8941 7.67466 18.9853 7.71828 19.0824 7.7427C19.1795 7.76712 19.2804 7.77186 19.3794 7.75664C19.4783 7.74142 19.5732 7.70655 19.6585 7.65407C19.7437 7.6016 19.8176 7.53259 19.8758 7.45111C19.9339 7.36963 19.9752 7.27734 19.9971 7.17966C20.0191 7.08198 20.0212 6.98091 20.0035 6.88238C19.9857 6.78386 19.9484 6.68989 19.8938 6.60601L18.6168 7.39201ZM12.0798 2.25001C7.03279 2.25001 2.92979 6.31101 2.92979 11.333H4.42979C4.42979 7.15101 7.84979 3.75001 12.0798 3.75001V2.25001ZM2.92979 11.333V13H4.42979V11.333H2.92979ZM4.20979 13.533L5.88879 11.866L4.83079 10.8L3.15079 12.467L4.20779 13.531L4.20979 13.533ZM4.20979 12.468L2.52879 10.8L1.47179 11.865L3.15179 13.531L4.20779 12.467L4.20979 12.468ZM19.8938 6.60801C19.0729 5.27411 17.9235 4.17305 16.5556 3.41006C15.1878 2.64707 13.6461 2.24767 12.0798 2.25001V3.75001C13.39 3.74729 14.6801 4.0808 15.8246 4.71863C16.9691 5.35646 17.9308 6.27728 18.6178 7.39301L19.8948 6.60701L19.8938 6.60801ZM20.3148 11L20.8418 10.467C20.7014 10.3284 20.5121 10.2506 20.3148 10.2506C20.1175 10.2506 19.9282 10.3284 19.7878 10.467L20.3148 11ZM18.1008 12.133C18.0307 12.2023 17.975 12.2847 17.9368 12.3755C17.8986 12.4663 17.8786 12.5637 17.878 12.6623C17.8769 12.8612 17.9549 13.0525 18.0948 13.194C18.2347 13.3355 18.4251 13.4156 18.624 13.4168C18.823 13.4179 19.0143 13.3399 19.1558 13.2L18.1008 12.133ZM21.4738 13.2C21.5434 13.2711 21.6265 13.3276 21.7183 13.3662C21.81 13.4049 21.9084 13.4249 22.008 13.4251C22.1075 13.4253 22.206 13.4057 22.2979 13.3674C22.3898 13.3291 22.4731 13.273 22.543 13.2022C22.613 13.1314 22.6681 13.0473 22.7053 12.955C22.7424 12.8627 22.7608 12.7639 22.7594 12.6644C22.758 12.5649 22.7368 12.4666 22.697 12.3754C22.6572 12.2842 22.5997 12.2018 22.5278 12.133L21.4738 13.2ZM5.31879 16.606C5.2143 16.4367 5.04681 16.3158 4.85318 16.2699C4.65955 16.2241 4.45563 16.257 4.28629 16.3615C4.11695 16.466 3.99606 16.6335 3.9502 16.8271C3.90435 17.0208 3.9373 17.2247 4.04179 17.394L5.31879 16.606ZM11.8838 21.75C16.9458 21.75 21.0638 17.692 21.0638 12.667H19.5638C19.5638 16.847 16.1338 20.25 11.8838 20.25V21.75ZM21.0638 12.667V11H19.5638V12.667H21.0638ZM19.7878 10.467L18.1008 12.133L19.1558 13.2L20.8418 11.533L19.7878 10.467ZM19.7878 11.533L21.4738 13.2L22.5278 12.133L20.8418 10.467L19.7878 11.533ZM4.04079 17.393C4.86721 18.7283 6.02179 19.8298 7.39452 20.5925C8.76726 21.3552 10.3124 21.7537 11.8828 21.75V20.25C10.5684 20.2537 9.27501 19.9207 8.12581 19.2828C6.9766 18.6449 6.01089 17.7234 5.31879 16.606L4.04179 17.394L4.04079 17.393Z" fill="#CCCCCC"/>
</svg>
