<svg width="20" height="20" viewBox="0 0 20 20" fill="none" xmlns="http://www.w3.org/2000/svg">
<path d="M7.03403 3.96297L4.49103 6.49997C4.02403 6.96597 3.59503 7.39297 3.25603 7.77997C3.02693 8.03535 2.81986 8.30966 2.63703 8.59997L2.61303 8.57497L2.51803 8.48097C2.07566 8.05217 1.55575 7.71145 0.98603 7.47697L0.86303 7.42697L0.48403 7.27697C0.366 7.23044 0.261417 7.15524 0.17972 7.05818C0.098024 6.96111 0.0417866 6.84523 0.0160851 6.72099C-0.00961649 6.59675 -0.00397303 6.46806 0.0325057 6.34655C0.0689844 6.22503 0.13515 6.11451 0.22503 6.02497C1.34503 4.90697 2.69003 3.56597 3.34003 3.29697C3.90431 3.06019 4.52229 2.98104 5.12803 3.06797C5.67403 3.14897 6.19003 3.42997 7.03403 3.96297ZM11.377 17.313C11.582 17.521 11.717 17.668 11.841 17.825C12.003 18.032 12.148 18.252 12.275 18.483C12.417 18.743 12.528 19.02 12.749 19.575C12.7926 19.6798 12.8613 19.7722 12.9491 19.8441C13.0368 19.9161 13.141 19.9653 13.2523 19.9874C13.3636 20.0096 13.4786 20.004 13.5872 19.9711C13.6958 19.9382 13.7947 19.8791 13.875 19.799L13.959 19.716C15.079 18.599 16.424 17.258 16.694 16.611C16.9312 16.0489 17.0104 15.4327 16.923 14.829C16.842 14.284 16.561 13.769 16.026 12.927L13.474 15.471C12.996 15.948 12.558 16.385 12.161 16.727C11.924 16.933 11.664 17.137 11.377 17.313Z" fill="#A0A0A0"/>
<path fill-rule="evenodd" clip-rule="evenodd" d="M12.447 14.377L18.294 8.547C19.136 7.708 19.557 7.288 19.778 6.755C20 6.22 20 5.627 20 4.44V3.873C20 2.047 20 1.134 19.431 0.567C18.862 -5.96046e-08 17.947 0 16.116 0H15.546C14.356 0 13.761 -4.47035e-08 13.226 0.221C12.69 0.442 12.269 0.862 11.426 1.701L5.58 7.531C4.596 8.511 3.986 9.12 3.75 9.707C3.67641 9.88525 3.63836 10.0762 3.638 10.269C3.638 11.071 4.285 11.717 5.58 13.008L5.754 13.181L7.792 11.112C7.86114 11.0418 7.94343 10.9859 8.03417 10.9475C8.12491 10.9091 8.22232 10.889 8.32084 10.8883C8.41937 10.8875 8.51707 10.9062 8.60838 10.9432C8.69969 10.9802 8.78281 11.0349 8.853 11.104C8.92319 11.1731 8.97908 11.2554 9.01747 11.3462C9.05586 11.4369 9.076 11.5343 9.07674 11.6328C9.07748 11.7314 9.05881 11.8291 9.0218 11.9204C8.98478 12.0117 8.93014 12.0948 8.861 12.165L6.816 14.24L6.953 14.377C8.248 15.667 8.896 16.313 9.7 16.313C9.878 16.313 10.048 16.282 10.219 16.219C10.822 15.997 11.438 15.383 12.447 14.377ZM15.194 7.531C14.8293 7.8944 14.3354 8.09844 13.8205 8.09844C13.3056 8.09844 12.8117 7.8944 12.447 7.531C12.2667 7.35149 12.1237 7.13815 12.0261 6.90322C11.9285 6.66829 11.8783 6.4164 11.8783 6.162C11.8783 5.9076 11.9285 5.65571 12.0261 5.42078C12.1237 5.18585 12.2667 4.97251 12.447 4.793C12.8117 4.4296 13.3056 4.22555 13.8205 4.22555C14.3354 4.22555 14.8293 4.4296 15.194 4.793C15.3743 4.97251 15.5173 5.18585 15.6149 5.42078C15.7125 5.65571 15.7627 5.9076 15.7627 6.162C15.7627 6.4164 15.7125 6.66829 15.6149 6.90322C15.5173 7.13815 15.3743 7.35149 15.194 7.531Z" fill="#A0A0A0"/>
</svg>
