<svg width="28" height="28" viewBox="0 0 28 28" fill="none" xmlns="http://www.w3.org/2000/svg">
<path fill-rule="evenodd" clip-rule="evenodd" d="M15.896 3.17379C15.473 3 14.9356 3 13.862 3C12.7884 3 12.2511 3 11.828 3.17379C11.2649 3.40498 10.8166 3.85037 10.5818 4.41201C10.4743 4.66697 10.4332 4.96538 10.416 5.39871C10.4084 5.71267 10.3208 6.0195 10.1616 6.29018C10.0023 6.56087 9.77665 6.78646 9.50592 6.94563C9.23008 7.09895 8.92001 7.18018 8.60443 7.18178C8.28885 7.18338 7.97797 7.1053 7.7006 6.95478C7.31415 6.75126 7.03403 6.63922 6.75735 6.60263C6.15202 6.52315 5.53978 6.68586 5.05378 7.05539C4.6902 7.33208 4.42152 7.79398 3.8853 8.71665C3.34793 9.63931 3.08039 10.1001 3.0198 10.5517C2.93976 11.1531 3.1044 11.7613 3.47713 12.2427C3.64634 12.4622 3.8853 12.6463 4.2546 12.8772C4.79996 13.2168 5.14982 13.7953 5.14982 14.4333C5.14982 15.0713 4.79996 15.6498 4.25574 15.9882C3.8853 16.2203 3.64634 16.4044 3.47599 16.6239C3.292 16.8617 3.15696 17.1335 3.07866 17.4238C3.00036 17.714 2.98035 18.0169 3.0198 18.3149C3.08039 18.7654 3.34793 19.2273 3.8853 20.1499C4.42266 21.0726 4.6902 21.5334 5.05378 21.8112C5.53856 22.1805 6.15138 22.3428 6.75735 22.264C7.03403 22.2274 7.31415 22.1153 7.7006 21.9118C7.97811 21.7611 8.2892 21.6829 8.605 21.6845C8.9208 21.6861 9.23108 21.7674 9.50706 21.921C10.0627 22.2411 10.392 22.8299 10.416 23.4679C10.4332 23.9023 10.4743 24.1996 10.5818 24.4546C10.815 25.0148 11.2632 25.4607 11.828 25.6928C12.2511 25.8666 12.7884 25.8666 13.862 25.8666C14.9356 25.8666 15.473 25.8666 15.896 25.6928C16.4591 25.4616 16.9074 25.0162 17.1422 24.4546C17.2497 24.1996 17.2909 23.9023 17.308 23.4679C17.3309 22.8299 17.6613 22.2399 18.2181 21.921C18.4939 21.7676 18.804 21.6864 19.1196 21.6848C19.4352 21.6832 19.746 21.7613 20.0234 21.9118C20.4099 22.1153 20.69 22.2274 20.9667 22.264C21.5726 22.344 22.1855 22.1805 22.6702 21.8112C23.0338 21.5345 23.3025 21.0726 23.8387 20.1499C24.3761 19.2273 24.6436 18.7665 24.7042 18.3149C24.7435 18.0168 24.7233 17.7139 24.6448 17.4236C24.5663 17.1334 24.4311 16.8616 24.2469 16.6239C24.0777 16.4044 23.8387 16.2203 23.4694 15.9894C22.9241 15.6498 22.5742 15.0713 22.5742 14.4333C22.5742 13.7953 22.9241 13.2168 23.4683 12.8784C23.8387 12.6463 24.0777 12.4622 24.248 12.2427C24.432 12.0049 24.5671 11.7331 24.6454 11.4428C24.7237 11.1526 24.7437 10.8497 24.7042 10.5517C24.6436 10.1012 24.3761 9.63931 23.8387 8.71665C23.3014 7.79398 23.0338 7.33322 22.6702 7.05539C22.1842 6.68586 21.572 6.52315 20.9667 6.60263C20.69 6.63922 20.4099 6.75126 20.0234 6.95478C19.7459 7.1055 19.4348 7.18369 19.119 7.18209C18.8032 7.18049 18.4929 7.09916 18.217 6.94563C17.9464 6.78632 17.721 6.56066 17.562 6.28999C17.4029 6.01931 17.3155 5.71256 17.308 5.39871C17.2909 4.96424 17.2497 4.66697 17.1422 4.41201C17.026 4.13388 16.8561 3.88137 16.6423 3.66891C16.4285 3.45645 16.1749 3.28821 15.896 3.17379Z" fill="#CCCCCC"/>
<path d="M17.3889 14.4336C17.3889 16.3668 15.8092 17.9336 13.862 17.9336C11.9137 17.9336 10.3352 16.3668 10.3352 14.4336C10.3352 12.5004 11.9137 10.9336 13.862 10.9336C15.8104 10.9336 17.3889 12.5004 17.3889 14.4336Z" fill="#252525"/>
</svg>
