<svg width="65" height="65" viewBox="0 0 65 65" fill="none" xmlns="http://www.w3.org/2000/svg">
<path d="M0 30.316C0 5.35077 5.35077 0 30.316 0H34.684C59.6492 0 65 5.35077 65 30.316V34.684C65 59.6492 59.6492 65 34.684 65H30.316C5.35077 65 0 59.6492 0 34.684V30.316Z" fill="#066431"/>
<path d="M31.92 17.8133L22.5867 21.96C21.6267 22.3867 21 23.3467 21 24.4V30.6667C21 38.0667 26.12 44.9867 33 46.6667C39.88 44.9867 45 38.0667 45 30.6667V24.4C45 23.3467 44.3733 22.3867 43.4133 21.96L34.08 17.8133C33.4 17.5067 32.6 17.5067 31.92 17.8133ZM33 31.9867H42.3333C41.6267 37.48 37.96 42.3733 33 43.9067V32H23.6667V24.4L33 20.2533V31.9867Z" fill="white"/>
</svg>
