<svg width="65" height="65" viewBox="0 0 65 65" fill="none" xmlns="http://www.w3.org/2000/svg">
<path d="M0 30.316C0 5.35077 5.35077 0 30.316 0H34.684C59.6492 0 65 5.35077 65 30.316V34.684C65 59.6492 59.6492 65 34.684 65H30.316C5.35077 65 0 59.6492 0 34.684V30.316Z" fill="#EF7530"/>
<path d="M24.2 20.2C23.1391 20.2 22.1217 20.6214 21.3715 21.3716C20.6214 22.1217 20.2 23.1391 20.2 24.2V38.6C20.2 39.6609 20.6214 40.6783 21.3715 41.4284C22.1217 42.1786 23.1391 42.6 24.2 42.6H38.6C39.6608 42.6 40.6782 42.1786 41.4284 41.4284C42.1785 40.6783 42.6 39.6609 42.6 38.6V24.2C42.6 23.1391 42.1785 22.1217 41.4284 21.3716C40.6782 20.6214 39.6608 20.2 38.6 20.2H24.2ZM32.2 27.4V30.6H35.4C35.6121 30.6 35.8156 30.6843 35.9656 30.8343C36.1157 30.9843 36.2 31.1878 36.2 31.4C36.2 31.6122 36.1157 31.8157 35.9656 31.9657C35.8156 32.1157 35.6121 32.2 35.4 32.2H32.2V35.4C32.2 35.6122 32.1157 35.8157 31.9656 35.9657C31.8156 36.1157 31.6121 36.2 31.4 36.2C31.1878 36.2 30.9843 36.1157 30.8343 35.9657C30.6842 35.8157 30.6 35.6122 30.6 35.4V32.2H27.4C27.1878 32.2 26.9843 32.1157 26.8343 31.9657C26.6842 31.8157 26.6 31.6122 26.6 31.4C26.6 31.1878 26.6842 30.9843 26.8343 30.8343C26.9843 30.6843 27.1878 30.6 27.4 30.6H30.6V27.4C30.6 27.1878 30.6842 26.9843 30.8343 26.8343C30.9843 26.6843 31.1878 26.6 31.4 26.6C31.6121 26.6 31.8156 26.6843 31.9656 26.8343C32.1157 26.9843 32.2 27.1878 32.2 27.4ZM29 45.8C27.5339 45.8021 26.1258 45.2274 25.08 44.2H40.2C41.2608 44.2 42.2782 43.7786 43.0284 43.0284C43.7785 42.2783 44.2 41.2609 44.2 40.2V25.08C45.1904 26.0912 45.8 27.4736 45.8 29V40.2C45.8 41.6852 45.21 43.1096 44.1597 44.1598C43.1095 45.21 41.6852 45.8 40.2 45.8H29Z" fill="white"/>
</svg>
