<svg width="65" height="65" viewBox="0 0 65 65" fill="none" xmlns="http://www.w3.org/2000/svg">
<path d="M0 30.316C0 5.35077 5.35077 0 30.316 0H34.684C59.6492 0 65 5.35077 65 30.316V34.684C65 59.6492 59.6492 65 34.684 65H30.316C5.35077 65 0 59.6492 0 34.684V30.316Z" fill="#2874CD"/>
<path d="M39 45.3334C40.4707 45.3334 41.6667 44.1374 41.6667 42.6667V21.3334C41.6667 19.8627 40.4707 18.6667 39 18.6667H25.6667C24.196 18.6667 23 19.8627 23 21.3334V42.6667C23 44.1374 24.196 45.3334 25.6667 45.3334H39ZM32.3333 38.6667C32.687 38.6667 33.0261 38.8072 33.2761 39.0573C33.5262 39.3073 33.6667 39.6465 33.6667 40.0001C33.6667 40.3537 33.5262 40.6928 33.2761 40.9429C33.0261 41.1929 32.687 41.3334 32.3333 41.3334C31.9797 41.3334 31.6406 41.1929 31.3905 40.9429C31.1405 40.6928 31 40.3537 31 40.0001C31 39.6465 31.1405 39.3073 31.3905 39.0573C31.6406 38.8072 31.9797 38.6667 32.3333 38.6667Z" fill="white"/>
</svg>
