<svg width="65" height="65" viewBox="0 0 65 65" fill="none" xmlns="http://www.w3.org/2000/svg">
<path d="M0 30.316C0 5.35077 5.35077 0 30.316 0H34.684C59.6492 0 65 5.35077 65 30.316V34.684C65 59.6492 59.6492 65 34.684 65H30.316C5.35077 65 0 59.6492 0 34.684V30.316Z" fill="#599F22"/>
<path fill-rule="evenodd" clip-rule="evenodd" d="M18.6666 33C18.6665 31.2958 19.2342 29.6402 20.2799 28.2946C21.3257 26.9491 22.79 25.9903 24.4415 25.5698C26.093 25.1493 27.8375 25.291 29.3994 25.9725C30.9614 26.6541 32.2517 27.8366 33.0666 29.3333H45C46.288 29.3333 47.3333 30.3787 47.3333 31.6667V35C47.3333 35.2652 47.2279 35.5196 47.0404 35.7071C46.8529 35.8946 46.5985 36 46.3333 36H43.3333V38.3333C43.3333 38.5985 43.2279 38.8529 43.0404 39.0404C42.8529 39.228 42.5985 39.3333 42.3333 39.3333H39C38.7347 39.3333 38.4804 39.228 38.2929 39.0404C38.1053 38.8529 38 38.5985 38 38.3333V36H33.3906C32.6987 37.6265 31.466 38.964 29.9012 39.7862C28.3365 40.6084 26.5357 40.8647 24.8037 40.5118C23.0717 40.1589 21.5148 39.2184 20.3965 37.8496C19.2781 36.4808 18.6671 34.7676 18.6666 33ZM26.3333 30.3333C25.626 30.3333 24.9478 30.6143 24.4477 31.1144C23.9476 31.6145 23.6666 32.2928 23.6666 33C23.6666 33.7072 23.9476 34.3855 24.4477 34.8856C24.9478 35.3857 25.626 35.6667 26.3333 35.6667C27.0405 35.6667 27.7188 35.3857 28.2189 34.8856C28.719 34.3855 29 33.7072 29 33C29 32.2928 28.719 31.6145 28.2189 31.1144C27.7188 30.6143 27.0405 30.3333 26.3333 30.3333Z" fill="white"/>
</svg>
