<svg width="65" height="65" viewBox="0 0 65 65" fill="none" xmlns="http://www.w3.org/2000/svg">
<path d="M0 30.316C0 5.35077 5.35077 0 30.316 0H34.684C59.6492 0 65 5.35077 65 30.316V34.684C65 59.6492 59.6492 65 34.684 65H30.316C5.35077 65 0 59.6492 0 34.684V30.316Z" fill="#4933D1"/>
<path d="M44.3333 31.1667H42.3333V25.8333C42.3333 24.3667 41.1333 23.1667 39.6666 23.1667H34.3333V21.1667C34.3333 20.2826 33.9821 19.4348 33.357 18.8096C32.7319 18.1845 31.884 17.8333 31 17.8333C30.1159 17.8333 29.2681 18.1845 28.6429 18.8096C28.0178 19.4348 27.6666 20.2826 27.6666 21.1667V23.1667H22.3333C20.8666 23.1667 19.68 24.3667 19.68 25.8333V30.9H21.6666C23.6533 30.9 25.2666 32.5133 25.2666 34.5C25.2666 36.4867 23.6533 38.1 21.6666 38.1H19.6666V43.1667C19.6666 44.6333 20.8666 45.8333 22.3333 45.8333H27.4V43.8333C27.4 41.8467 29.0133 40.2333 31 40.2333C32.9866 40.2333 34.6 41.8467 34.6 43.8333V45.8333H39.6666C41.1333 45.8333 42.3333 44.6333 42.3333 43.1667V37.8333H44.3333C45.2173 37.8333 46.0652 37.4821 46.6903 36.857C47.3154 36.2319 47.6666 35.3841 47.6666 34.5C47.6666 33.6159 47.3154 32.7681 46.6903 32.143C46.0652 31.5179 45.2173 31.1667 44.3333 31.1667Z" fill="white"/>
</svg>
