<svg width="24" height="25" viewBox="0 0 24 25" fill="none" xmlns="http://www.w3.org/2000/svg">
<path d="M9 22.5C8.45 22.5 7.979 22.304 7.587 21.912C7.195 21.52 6.99934 21.0493 7 20.5V17.5H4C3.45 17.5 2.979 17.304 2.587 16.912C2.195 16.52 1.99934 16.0493 2 15.5V13.5H8.45L10.15 16.05C10.2333 16.1833 10.35 16.2917 10.5 16.375C10.65 16.4583 10.8083 16.5 10.975 16.5C11.1917 16.5 11.3917 16.4333 11.575 16.3C11.7583 16.1667 11.8833 16 11.95 15.8L13.3 11.75L14.15 13.05C14.25 13.1833 14.375 13.2917 14.525 13.375C14.675 13.4583 14.8333 13.5 15 13.5H22V15.5C22 16.05 21.804 16.521 21.412 16.913C21.02 17.305 20.5493 17.5007 20 17.5H17V20.5C17 21.05 16.804 21.521 16.412 21.913C16.02 22.305 15.5493 22.5007 15 22.5H9ZM10.7 13.25L9.825 11.95C9.74167 11.8167 9.625 11.7083 9.475 11.625C9.325 11.5417 9.16667 11.5 9 11.5H2V9.5C2 8.95 2.196 8.479 2.588 8.087C2.98 7.695 3.45067 7.49934 4 7.5H7V4.5C7 3.95 7.196 3.479 7.588 3.087C7.98 2.695 8.45067 2.49934 9 2.5H15C15.55 2.5 16.021 2.696 16.413 3.088C16.805 3.48 17.0007 3.95067 17 4.5V7.5H20C20.55 7.5 21.021 7.696 21.413 8.088C21.805 8.48 22.0007 8.95067 22 9.5V11.5H15.525L13.825 8.95C13.7417 8.81667 13.625 8.70834 13.475 8.625C13.325 8.54167 13.1667 8.5 13 8.5C12.7833 8.5 12.5873 8.56667 12.412 8.7C12.2367 8.83333 12.116 9 12.05 9.2L10.7 13.25Z" fill="url(#paint0_linear_1144_809)"/>
<defs>
<linearGradient id="paint0_linear_1144_809" x1="5" y1="2.5" x2="24" y2="25" gradientUnits="userSpaceOnUse">
<stop stop-color="#2ED370"/>
<stop offset="1" stop-color="#2ED370" stop-opacity="0"/>
</linearGradient>
</defs>
</svg>
