<svg width="24" height="25" viewBox="0 0 24 25" fill="none" xmlns="http://www.w3.org/2000/svg">
<path d="M1 9.12999C1 8.16725 1.38244 7.24395 2.0632 6.5632C2.74396 5.88244 3.66726 5.5 4.62999 5.5H18.49C19.4527 5.5 20.376 5.88244 21.0567 6.5632C21.7375 7.24395 22.1199 8.16725 22.1199 9.12999V16.39C22.1199 17.3527 21.7375 18.276 21.0567 18.9567C20.376 19.6375 19.4527 20.0199 18.49 20.0199H4.62999C3.66726 20.0199 2.74396 19.6375 2.0632 18.9567C1.38244 18.276 1 17.3527 1 16.39V9.12999ZM7.7927 10.9727L6.93998 11.8267L6.08727 10.9727C5.96334 10.8488 5.79525 10.7791 5.61999 10.7791C5.44472 10.7791 5.27664 10.8488 5.15271 10.9727C5.02878 11.0966 4.95916 11.2647 4.95916 11.44C4.95916 11.6152 5.02878 11.7833 5.15271 11.9073L6.00675 12.76L5.15271 13.6127C5.02878 13.7366 4.95916 13.9047 4.95916 14.08C4.95916 14.2552 5.02878 14.4233 5.15271 14.5472C5.27664 14.6712 5.44472 14.7408 5.61999 14.7408C5.79525 14.7408 5.96334 14.6712 6.08727 14.5472L6.93998 13.6932L7.7927 14.5472C7.91663 14.6712 8.08472 14.7408 8.25998 14.7408C8.43524 14.7408 8.60333 14.6712 8.72726 14.5472C8.85119 14.4233 8.92081 14.2552 8.92081 14.08C8.92081 13.9047 8.85119 13.7366 8.72726 13.6127L7.87322 12.76L8.72726 11.9073C8.78862 11.8459 8.8373 11.773 8.87051 11.6929C8.90372 11.6127 8.92081 11.5268 8.92081 11.44C8.92081 11.3532 8.90372 11.2673 8.87051 11.1871C8.8373 11.1069 8.78862 11.0341 8.72726 10.9727C8.6659 10.9113 8.59305 10.8627 8.51287 10.8294C8.43269 10.7962 8.34676 10.7791 8.25998 10.7791C8.1732 10.7791 8.08727 10.7962 8.00709 10.8294C7.92692 10.8627 7.85407 10.9113 7.7927 10.9727ZM13.0727 10.9727L12.22 11.8267L11.3673 10.9727C11.2433 10.8488 11.0752 10.7791 10.9 10.7791C10.7247 10.7791 10.5566 10.8488 10.4327 10.9727C10.3088 11.0966 10.2391 11.2647 10.2391 11.44C10.2391 11.6152 10.3088 11.7833 10.4327 11.9073L11.2867 12.76L10.4327 13.6127C10.3088 13.7366 10.2391 13.9047 10.2391 14.08C10.2391 14.2552 10.3088 14.4233 10.4327 14.5472C10.5566 14.6712 10.7247 14.7408 10.9 14.7408C11.0752 14.7408 11.2433 14.6712 11.3673 14.5472L12.22 13.6932L13.0727 14.5472C13.1966 14.6712 13.3647 14.7408 13.54 14.7408C13.7152 14.7408 13.8833 14.6712 14.0072 14.5472C14.1312 14.4233 14.2008 14.2552 14.2008 14.08C14.2008 13.9047 14.1312 13.7366 14.0072 13.6127L13.1532 12.76L14.0072 11.9073C14.1312 11.7833 14.2008 11.6152 14.2008 11.44C14.2008 11.2647 14.1312 11.0966 14.0072 10.9727C13.8833 10.8488 13.7152 10.7791 13.54 10.7791C13.3647 10.7791 13.1966 10.8488 13.0727 10.9727ZM15.52 14.08C15.52 14.255 15.5895 14.4229 15.7133 14.5467C15.837 14.6704 16.0049 14.74 16.18 14.74H18.82C18.995 14.74 19.1629 14.6704 19.2866 14.5467C19.4104 14.4229 19.48 14.255 19.48 14.08C19.48 13.9049 19.4104 13.7371 19.2866 13.6133C19.1629 13.4895 18.995 13.42 18.82 13.42H16.18C16.0049 13.42 15.837 13.4895 15.7133 13.6133C15.5895 13.7371 15.52 13.9049 15.52 14.08Z" fill="url(#paint0_linear_1144_1460)"/>
<defs>
<linearGradient id="paint0_linear_1144_1460" x1="4.16799" y1="5.5" x2="16.3185" y2="26.4291" gradientUnits="userSpaceOnUse">
<stop stop-color="#2ED370"/>
<stop offset="1" stop-color="#2ED370" stop-opacity="0"/>
</linearGradient>
</defs>
</svg>
