<svg width="24" height="25" viewBox="0 0 24 25" fill="none" xmlns="http://www.w3.org/2000/svg">
<path d="M10.938 3.86C11.565 3.38 12.4365 3.38 13.0635 3.86L20.5065 9.5495C21.4545 10.274 20.946 11.786 19.755 11.792H4.245C3.0555 11.786 2.5455 10.274 3.495 9.5495L10.938 3.86ZM12 9.167C12.2984 9.167 12.5845 9.04847 12.7955 8.83749C13.0065 8.62652 13.125 8.34037 13.125 8.042C13.125 7.74363 13.0065 7.45748 12.7955 7.2465C12.5845 7.03553 12.2984 6.917 12 6.917C11.7016 6.917 11.4155 7.03553 11.2045 7.2465C10.9935 7.45748 10.875 7.74363 10.875 8.042C10.875 8.34037 10.9935 8.62652 11.2045 8.83749C11.4155 9.04847 11.7016 9.167 12 9.167ZM5.25 13.292V17.792H7.5V13.292H5.25ZM9 13.292V17.792H11.25V13.292H9ZM12.75 13.292V17.792H15V13.292H12.75ZM16.5 13.292V17.792H18.75V13.292H16.5ZM3 21.167C3 20.132 3.84 19.292 4.875 19.292H19.125C20.16 19.292 21 20.132 21 21.167V21.542C21 21.7409 20.921 21.9317 20.7803 22.0723C20.6397 22.213 20.4489 22.292 20.25 22.292H3.75C3.55109 22.292 3.36032 22.213 3.21967 22.0723C3.07902 21.9317 3 21.7409 3 21.542V21.167Z" fill="#666666"/>
</svg>
