<svg width="24" height="25" viewBox="0 0 24 25" fill="none" xmlns="http://www.w3.org/2000/svg">
<g clip-path="url(#clip0_1144_1738)">
<path d="M22 10.5V17.5C22 18.2956 21.6839 19.0587 21.1213 19.6213C20.5587 20.1839 19.7956 20.5 19 20.5H5C4.20435 20.5 3.44129 20.1839 2.87868 19.6213C2.31607 19.0587 2 18.2956 2 17.5V10.5H22ZM18 14.5H15C14.7348 14.5 14.4804 14.6054 14.2929 14.7929C14.1054 14.9804 14 15.2348 14 15.5C14 15.7652 14.1054 16.0196 14.2929 16.2071C14.4804 16.3946 14.7348 16.5 15 16.5H18C18.2652 16.5 18.5196 16.3946 18.7071 16.2071C18.8946 16.0196 19 15.7652 19 15.5C19 15.2348 18.8946 14.9804 18.7071 14.7929C18.5196 14.6054 18.2652 14.5 18 14.5ZM19 4.5C19.7956 4.5 20.5587 4.81607 21.1213 5.37868C21.6839 5.94129 22 6.70435 22 7.5V8.5H2V7.5C2 6.70435 2.31607 5.94129 2.87868 5.37868C3.44129 4.81607 4.20435 4.5 5 4.5H19Z" fill="#666666"/>
</g>
<defs>
<clipPath id="clip0_1144_1738">
<rect width="24" height="24" fill="white" transform="translate(0 0.5)"/>
</clipPath>
</defs>
</svg>
