<svg width="24" height="25" viewBox="0 0 24 25" fill="none" xmlns="http://www.w3.org/2000/svg">
<path d="M14.24 11.0576C13.93 12.2976 12 11.6676 11.4 11.4976L11.95 9.3176C12.57 9.4976 14.56 9.7576 14.24 11.0576ZM11.13 12.6176L10.53 15.0276C11.27 15.2176 13.56 15.9476 13.9 14.5876C14.26 13.1676 11.87 12.7976 11.13 12.6176ZM21.7 14.9176C20.36 20.2776 14.94 23.5376 9.58 22.1976C4.22 20.8576 0.963001 15.4376 2.3 10.0776C2.61764 8.80369 3.18313 7.60483 3.96417 6.5495C4.74521 5.49417 5.72649 4.60303 6.85198 3.927C7.97747 3.25096 9.22511 2.80327 10.5236 2.60948C11.8222 2.4157 13.1462 2.47962 14.42 2.7976C19.77 4.1376 23.03 9.5576 21.7 14.9176ZM14.21 8.5476L14.66 6.7476L13.56 6.4976L13.12 8.2276C12.83 8.1576 12.54 8.0876 12.24 8.0276L12.68 6.2576L11.59 5.9976L11.14 7.7876C10.9 7.7276 10.66 7.6776 10.44 7.6176L8.93 7.2376L8.63 8.4076C8.63 8.4076 9.45 8.5976 9.43 8.6076C9.88 8.7176 9.96 8.9976 9.94 9.2476L8.71 14.1776C8.66 14.3176 8.5 14.4976 8.21 14.4476C8.22 14.4576 7.41 14.2476 7.41 14.2476L6.87 15.4976L8.29 15.8576C8.56 15.9276 8.82 15.9976 9.08 16.0576L8.62 17.8776L9.72 18.1576L10.17 16.3476C10.47 16.4276 10.76 16.4976 11.04 16.5776L10.59 18.3676L11.69 18.6476L12.15 16.8276C14 17.1776 15.42 17.0376 16 15.3476C16.5 13.9976 16 13.1976 15 12.6876C15.72 12.4976 16.26 12.0476 16.41 11.0676C16.61 9.7376 15.59 9.0276 14.21 8.5476Z" fill="#666666"/>
</svg>
