<svg width="24" height="25" viewBox="0 0 24 25" fill="none" xmlns="http://www.w3.org/2000/svg">
<path d="M21.4289 6.50024H2.57171C1.62493 6.50024 0.857422 7.26776 0.857422 8.21453V16.786C0.857422 17.7327 1.62493 18.5002 2.57171 18.5002H21.4289C22.3756 18.5002 23.1431 17.7327 23.1431 16.786V8.21453C23.1431 7.26776 22.3756 6.50024 21.4289 6.50024Z" stroke="#666666" stroke-width="1.71429" stroke-linecap="round" stroke-linejoin="round"/>
<path d="M5.99972 13.3574C6.47311 13.3574 6.85686 12.9736 6.85686 12.5002C6.85686 12.0268 6.47311 11.6431 5.99972 11.6431C5.52633 11.6431 5.14258 12.0268 5.14258 12.5002C5.14258 12.9736 5.52633 13.3574 5.99972 13.3574Z" stroke="#666666" stroke-width="1.71429" stroke-linecap="round" stroke-linejoin="round"/>
<path d="M11.1433 13.3574C11.6167 13.3574 12.0004 12.9736 12.0004 12.5002C12.0004 12.0268 11.6167 11.6431 11.1433 11.6431C10.6699 11.6431 10.2861 12.0268 10.2861 12.5002C10.2861 12.9736 10.6699 13.3574 11.1433 13.3574Z" stroke="#666666" stroke-width="1.71429" stroke-linecap="round" stroke-linejoin="round"/>
<path d="M16.2861 14.2144H18.8576" stroke="#666666" stroke-width="1.71429" stroke-linecap="round" stroke-linejoin="round"/>
</svg>
