<svg width="24" height="25" viewBox="0 0 24 25" fill="none" xmlns="http://www.w3.org/2000/svg">
<path d="M10.6625 20.35C10.6625 20.35 9.425 20.35 9.425 19.1125C9.425 17.875 10.6625 14.1625 15.6125 14.1625C20.5625 14.1625 21.8 17.875 21.8 19.1125C21.8 20.35 20.5625 20.35 20.5625 20.35H10.6625ZM15.6125 12.925C16.5971 12.925 17.5414 12.5339 18.2376 11.8376C18.9339 11.1414 19.325 10.1971 19.325 9.2125C19.325 8.22788 18.9339 7.2836 18.2376 6.58737C17.5414 5.89114 16.5971 5.5 15.6125 5.5C14.6279 5.5 13.6836 5.89114 12.9874 6.58737C12.2911 7.2836 11.9 8.22788 11.9 9.2125C11.9 10.1971 12.2911 11.1414 12.9874 11.8376C13.6836 12.5339 14.6279 12.925 15.6125 12.925ZM8.4548 20.35C8.27135 19.9637 8.17986 19.5401 8.1875 19.1125C8.1875 17.4357 9.029 15.7094 10.5833 14.509C9.8075 14.27 8.99924 14.1531 8.1875 14.1625C3.2375 14.1625 2 17.875 2 19.1125C2 20.35 3.2375 20.35 3.2375 20.35H8.4548ZM7.56875 12.925C8.38926 12.925 9.17617 12.5991 9.75636 12.0189C10.3366 11.4387 10.6625 10.6518 10.6625 9.83125C10.6625 9.01074 10.3366 8.22383 9.75636 7.64364C9.17617 7.06345 8.38926 6.7375 7.56875 6.7375C6.74824 6.7375 5.96133 7.06345 5.38114 7.64364C4.80095 8.22383 4.475 9.01074 4.475 9.83125C4.475 10.6518 4.80095 11.4387 5.38114 12.0189C5.96133 12.5991 6.74824 12.925 7.56875 12.925Z" fill="#666666"/>
</svg>
