<svg width="18" height="18" viewBox="0 0 18 18" fill="none" xmlns="http://www.w3.org/2000/svg">
<rect width="18" height="18" rx="9" fill="black"/>
<path fill-rule="evenodd" clip-rule="evenodd" d="M8.18068 13.675H10.5693C12.2469 13.675 13.0859 13.675 13.6884 13.2799C13.9484 13.1095 14.1723 12.8896 14.3474 12.6328C14.75 12.0415 14.75 11.2176 14.75 9.57066C14.75 7.92323 14.75 7.09978 14.3474 6.50853C14.1723 6.25167 13.9484 6.03177 13.6884 5.86138C13.3014 5.60715 12.8166 5.51631 12.0743 5.48406C11.7201 5.48406 11.4154 5.22068 11.346 4.87937C11.293 4.62937 11.1553 4.40532 10.9562 4.2451C10.7571 4.08488 10.5088 3.99831 10.2533 4.00003H8.49673C7.96568 4.00003 7.50826 4.36821 7.40399 4.87937C7.33465 5.22068 7.02989 5.48406 6.67568 5.48406C5.93393 5.51631 5.4491 5.60768 5.06156 5.86138C4.80175 6.0318 4.57801 6.2517 4.40313 6.50853C4 7.09978 4 7.92323 4 9.57066C4 11.2176 4 12.041 4.40259 12.6328C4.57674 12.8886 4.80034 13.1085 5.06156 13.2799C5.6641 13.675 6.50314 13.675 8.18068 13.675ZM9.375 7.37175C8.13821 7.37175 7.13524 8.35591 7.13524 9.57012C7.13524 10.7849 8.13821 11.769 9.375 11.769C10.6118 11.769 11.6148 10.7849 11.6148 9.57066C11.6148 8.35591 10.6118 7.37175 9.375 7.37175ZM9.375 8.2511C8.63325 8.2511 8.03125 8.84181 8.03125 9.57066C8.03125 10.299 8.63325 10.8897 9.375 10.8897C10.1168 10.8897 10.7188 10.299 10.7188 9.57066C10.7188 8.84181 10.1168 8.2511 9.375 8.2511ZM11.9131 7.81143C11.9131 7.56848 12.1136 7.37175 12.3614 7.37175H12.958C13.2052 7.37175 13.4062 7.56848 13.4062 7.81143C13.4051 7.92908 13.3573 8.04148 13.2734 8.12392C13.1894 8.20636 13.0762 8.2521 12.9585 8.2511H12.3614C12.303 8.25167 12.2452 8.24075 12.1911 8.21896C12.137 8.19717 12.0878 8.16494 12.0461 8.12411C12.0045 8.08328 11.9713 8.03466 11.9485 7.98101C11.9257 7.92736 11.9136 7.86973 11.9131 7.81143Z" fill="#EFEFEF"/>
</svg>
