<svg width="24" height="24" viewBox="0 0 24 24" fill="none" xmlns="http://www.w3.org/2000/svg">
<path d="M19.6866 14.093L19.8706 12.388C19.9676 11.478 20.0326 10.878 19.9816 10.5H19.9996C20.3419 10.4999 20.6739 10.3827 20.9404 10.168C21.2069 9.95319 21.392 9.65372 21.4648 9.31928C21.5377 8.98483 21.494 8.63553 21.3409 8.32935C21.1879 8.02317 20.9348 7.77855 20.6235 7.63608C20.3123 7.49361 19.9617 7.46188 19.6299 7.54614C19.2982 7.63041 19.0052 7.8256 18.7997 8.09933C18.5942 8.37305 18.4885 8.70883 18.5001 9.05092C18.5117 9.39301 18.64 9.72084 18.8636 9.97998C18.5376 10.181 18.1116 10.606 17.4706 11.245C16.9756 11.738 16.7286 11.984 16.4526 12.022C16.2997 12.0431 16.1439 12.0213 16.0026 11.959C15.7486 11.847 15.5786 11.543 15.2396 10.934L13.4496 7.72498C13.2406 7.34998 13.0656 7.03498 12.9076 6.78298C13.3079 6.57903 13.6278 6.24625 13.8159 5.83828C14.004 5.43031 14.0492 4.9709 13.9443 4.53408C13.8395 4.09725 13.5906 3.70846 13.2378 3.43034C12.885 3.15222 12.4488 3.00098 11.9996 3.00098C11.5504 3.00098 11.1142 3.15222 10.7614 3.43034C10.4086 3.70846 10.1597 4.09725 10.0549 4.53408C9.95 4.9709 9.99524 5.43031 10.1833 5.83828C10.3714 6.24625 10.6913 6.57903 11.0916 6.78298C10.9336 7.03598 10.7586 7.34998 10.5486 7.72498L8.75961 10.934C8.41961 11.543 8.24961 11.847 7.99561 11.959C7.85434 12.0213 7.69855 12.0431 7.54561 12.022C7.27061 11.984 7.02361 11.738 6.52861 11.245C5.88761 10.606 5.46161 10.181 5.13561 9.97998C5.35924 9.72084 5.48751 9.39301 5.49914 9.05092C5.51076 8.70883 5.40503 8.37305 5.19951 8.09933C4.99399 7.8256 4.70103 7.63041 4.36927 7.54614C4.03751 7.46188 3.68692 7.49361 3.37568 7.63608C3.06445 7.77855 2.8113 8.02317 2.65827 8.32935C2.50523 8.63553 2.46152 8.98483 2.53438 9.31928C2.60724 9.65372 2.7923 9.95319 3.05882 10.168C3.32535 10.3827 3.65732 10.4999 3.99961 10.5H4.01761C3.96661 10.878 4.03161 11.479 4.12861 12.388L4.31261 14.093C4.41461 15.039 4.49861 15.94 4.60261 16.75H19.3966C19.5006 15.94 19.5846 15.04 19.6866 14.093ZM10.9116 21H13.0876C15.9236 21 17.3416 21 18.2876 20.153C18.7006 19.783 18.9616 19.117 19.1506 18.25H4.84861C5.03761 19.117 5.29861 19.784 5.71161 20.153C6.65761 21 8.07561 21 10.9116 21Z" fill="black"/>
</svg>
